HIERARCHY
ROOT Hips
{
  OFFSET -6.8336 87.1284 -70.2933
  CHANNELS 6 Xposition Yposition Zposition Zrotation Xrotation Yrotation
  JOINT RightUpLeg
  {
    OFFSET -8.9458 -8.66707 0.101652
    CHANNELS 3 Zrotation Xrotation Yrotation
    JOINT RightLeg
    {
      OFFSET 0 -44.4227 1.3727
      CHANNELS 3 Zrotation Xrotation Yrotation
      JOINT RightFoot
      {
        OFFSET 0.253549 -42.0924 -1.46059
        CHANNELS 3 Zrotation Xrotation Yrotation
        JOINT RightToes
        {
          OFFSET 0.04 -4.41509 8.4991
          CHANNELS 3 Zrotation Xrotation Yrotation
          End Site
          {
            OFFSET -0.08 -0.137448 9.77979
          }
        }
      }
    }
  }
  JOINT Spine
  {
    OFFSET 0 11.8905 0
    CHANNELS 3 Zrotation Xrotation Yrotation
    JOINT Spine1
    {
      OFFSET 0 25.6574 0.127663
      CHANNELS 3 Zrotation Xrotation Yrotation
      JOINT HEad
      {
        OFFSET 0 8.73416 0.011341
        CHANNELS 3 Zrotation Xrotation Yrotation
        End Site
        {
          OFFSET -0.29 12.7742 2.51395
        }
      }
      JOINT LeftShoulder1
      {
        OFFSET 8.99 -0.362252 -0.22
        CHANNELS 3 Zrotation Xrotation Yrotation
        JOINT LeftArm
        {
          OFFSET 10.2827 -0.00338 0.322123
          CHANNELS 3 Zrotation Xrotation Yrotation
          JOINT LeftForeArm
          {
            OFFSET 32.7669 0.099144 -1.42434
            CHANNELS 3 Zrotation Xrotation Yrotation
            JOINT LeftHand
            {
              OFFSET 27.5643 0.085362 1.02216
              CHANNELS 3 Zrotation Xrotation Yrotation
              End Site
              {
                OFFSET 16.7443 -0.6 1.50291
              }
            }
          }
        }
      }
      JOINT RightShoulder
      {
        OFFSET -8.99 -0.362252 -0.22
        CHANNELS 3 Zrotation Xrotation Yrotation
        JOINT RightArm
        {
          OFFSET -10.2827 -0.00338 0.322123
          CHANNELS 3 Zrotation Xrotation Yrotation
          JOINT RightForeArm
          {
            OFFSET -32.8971 0.099144 -1.42434
            CHANNELS 3 Zrotation Xrotation Yrotation
            JOINT RightHand
            {
              OFFSET -27.4921 0.085362 1.02216
              CHANNELS 3 Zrotation Xrotation Yrotation
              End Site
              {
                OFFSET -16.6312 -0.6 1.50291
              }
            }
          }
        }
      }
    }
  }
  JOINT LeftUpLeg
  {
    OFFSET 8.9458 -8.66707 0.101652
    CHANNELS 3 Zrotation Xrotation Yrotation
    JOINT LeftLeg
    {
      OFFSET 0 -44.4227 1.3727
      CHANNELS 3 Zrotation Xrotation Yrotation
      JOINT LeftFoot
      {
        OFFSET -0.253549 -42.0924 -1.46059
        CHANNELS 3 Zrotation Xrotation Yrotation
        JOINT LeftToes
        {
          OFFSET -0.04 -4.41509 8.4991
          CHANNELS 3 Zrotation Xrotation Yrotation
          End Site
          {
            OFFSET 0.08 -0.047448 9.77979
          }
        }
      }
    }
  }
}
MOTION
Frames:	11
Frame Time:	0.0166667
-2.09904 88.326 -50.185 -0.961429 -8.29655 7.90537 -24.7519 -17.6436 8.61945 11.9597 31.5521 -3.33054 29.4468 20.5767 -7.35761 -41.6985 -37.5707 1.816 0.532475 8.11097 0.257574 -4.12111 15.7866 1.49554 10.1493 -9.90901 -41.7007 3.97569e-016 0 -0 -47.7221 -4.9836 -53.1182 12.9229 17.0039 -128.969 -3.62546 9.52528 14.1708 26.842 -2.83501 -12.2005 46.711 -57.0168 36.7995 -8.39559 20.4163 140.087 43.8577 -2.96273 -34.9366 29.0774 1.9147 -9.17703 -21.2183 31.0163 39.7954 8.47618 9.13369 -1.31081 37.0698 -44.8622 9.86286 
-2.31039 88.3794 -49.7515 -0.201071 -8.44195 5.40395 -24.0044 -17.8946 9.47091 8.4734 30.66 0.119445 34.6095 23.2736 -9.53941 -47.1807 -41.6436 0.396378 0.386917 7.86945 -0.126276 -3.29085 15.4002 0.41257 7.53272 -9.97251 -38.4373 -3.97569e-016 -1.59028e-015 -7.95139e-016 -49.4802 -7.75095 -52.8299 12.0345 17.8087 -130.539 -3.47328 9.54086 14.099 31.5373 -4.13004 -14.6845 43.9953 -50.8535 34.2875 -6.65248 20.4742 142.5 38.9392 0.358517 -30.3916 26.9737 4.83955 -10.2135 -20.1445 29.2512 41.1028 6.24007 4.64308 -0.713099 31.709 -41.3878 5.38123 
-2.40714 88.4586 -49.6127 0.238726 -8.49144 2.11591 -23.0365 -18.7274 9.70379 4.86344 29.3866 4.90946 40.0837 25.3049 -11.8892 -51.0873 -45.0043 0.153329 0.320012 7.74493 -1.3654 -2.13295 15.2514 -2.35605 4.84554 -10.2049 -31.8712 -5.46658e-016 4.77083e-015 1.98785e-016 -52.1159 -11.8545 -54.8316 12.13 18.6363 -131.972 -3.27433 9.51573 15.3063 33.902 -4.58741 -15.1311 44.2927 -43.2387 33.2255 -5.70279 20.7475 143 32.7985 3.70351 -24.8078 25.0214 7.44526 -10.844 -19.3522 27.8619 42.8625 3.5427 1.19006 -0.296568 27.6406 -38.387 1.76614 
-2.4094 88.5294 -49.75 0.266044 -8.44501 -1.83286 -21.5738 -19.8006 9.70975 1.24192 27.4435 10.919 45.2382 26.2026 -13.9342 -53.1063 -47.5122 1.08339 0.361957 7.54942 -3.32324 -0.719458 14.9198 -6.48882 2.34208 -9.93656 -22.5568 -3.97569e-016 3.18055e-015 -0 -54.3252 -16.0329 -58.7445 13.7209 18.8242 -132.285 -3.30663 9.43533 17.5072 34.531 -4.28292 -14.0648 46.3545 -35.7288 33.3629 -5.51798 21.6764 141.48 26.2284 6.59061 -18.2041 23.6226 9.67062 -10.8364 -19.1296 26.7534 44.5594 1.46358 -0.784364 -0.0988506 25.3327 -36.4897 -0.341031 
-2.34961 88.5464 -50.0738 -0.166131 -8.1872 -6.11786 -19.4553 -20.8626 9.71473 -2.16971 24.8835 17.4703 48.9364 25.7415 -14.9991 -53.2697 -49.0031 2.89065 0.503879 7.2338 -5.52824 0.849783 14.31 -11.0593 0.154436 -9.0986 -12.2026 -8.82781e-032 1.59028e-015 3.18055e-015 -55.6199 -19.1858 -64.8422 17.234 19.4521 -129.404 -3.81778 9.28329 19.86 34.9562 -4.00689 -13.1716 48.5569 -29.7385 35.0467 -5.64712 23.696 138.246 19.5527 8.73801 -10.8998 23.0194 11.4669 -10.255 -19.4669 25.8325 45.5114 0.647994 -1.66707 -0.0395263 24.5266 -35.748 -1.01104 
-2.3195 88.486 -50.4417 -0.97634 -7.53722 -10.2057 -16.7928 -21.9216 9.93467 -4.94401 22.4043 23.1045 49.7546 24.1813 -14.5716 -52.2193 -49.4374 4.79539 0.753852 6.92957 -7.77188 2.58323 13.6832 -15.6378 -1.51137 -8.28127 -1.99932 -7.95139e-016 4.77083e-015 3.18055e-015 -56.3533 -21.3019 -73.1454 22.4685 23.0694 -121.324 -4.28555 9.16887 21.023 35.2076 -3.91546 -12.847 50.4913 -24.6473 38.0295 -6.05143 25.4085 134.254 14.2573 9.84196 -4.77288 23.2006 12.8026 -9.38479 -19.9082 25.0164 45.0387 0.877865 -2.1217 -0.0453574 24.717 -35.8949 -0.796437 
-2.36743 88.3993 -50.7731 -1.96643 -6.38997 -13.586 -13.9617 -23.0819 10.5331 -6.76408 20.6811 26.2705 47.2061 22.2262 -12.9035 -50.9085 -49.0024 5.89913 1.18241 6.74249 -10.012 4.44652 13.2202 -20.2053 -2.23581 -8.06265 7.55459 1.59028e-015 0 9.54166e-015 -56.0923 -22.2732 -82.8961 27.9378 31.2725 -107.155 -4.16036 9.20452 20.617 34.7222 -3.69116 -12.3766 52.5327 -20.229 41.5534 -6.7578 25.8489 130.746 12.1291 10.1344 -2.21348 23.8515 13.6392 -8.52412 -19.8325 24.2274 42.9419 1.51402 -2.66415 -0.065756 25.3011 -36.4601 -0.365465 
-2.49924 88.3793 -51.0565 -2.89564 -4.83826 -15.9282 -11.4916 -24.3657 11.52 -7.44908 19.9031 26.1562 42.1901 20.4451 -10.7322 -49.7303 -47.8822 5.92688 1.81327 6.7439 -12.1279 6.23199 13.0172 -24.5791 -1.63042 -8.73249 16.0015 -0 -7.95139e-016 -0 -40.5268 -19.2535 -88.3098 28.8735 30.7004 -78.6004 -6.35815 8.91959 20.1858 33.7108 -3.32516 -11.6397 54.706 -17.0479 45.1277 -7.79852 25.0925 128.741 13.647 9.94769 -3.94134 24.5669 13.9894 -7.88063 -18.8999 23.3443 39.6301 1.90118 -3.64537 -0.0604779 25.4635 -36.6959 -0.392696 
-2.72827 88.4598 -51.3139 -3.49732 -3.20898 -17.1362 -10.0131 -25.7924 12.8269 -6.74071 20.1157 22.8071 35.895 19.0482 -8.57972 -48.43 -46.1131 5.21314 2.42147 6.96342 -13.9321 7.64518 13.1836 -28.3757 0.264868 -10.4445 22.8305 -1.59028e-015 0 -3.18055e-015 -13.8927 -17.137 -90.6884 24.7191 22.8747 -43.0739 -11.656 8.01797 21.695 32.7753 -3.02531 -11.0304 56.7259 -15.6659 48.4527 -9.11678 23.4053 128.838 18.5193 9.10156 -9.09523 25.0143 13.9681 -7.4423 -17.2204 22.3364 35.7451 1.45405 -5.21143 -0.015338 24.5527 -35.9843 -1.38142 
-3.06405 88.6354 -51.5783 -3.60356 -1.86485 -17.3666 -9.9886 -27.2313 14.3398 -4.37978 21.0319 16.9599 28.8932 17.8183 -6.5237 -46.1888 -43.3852 4.36465 2.84214 7.38211 -15.2456 8.50258 13.7709 -31.1812 2.79065 -13.3284 27.6254 3.18055e-015 3.18055e-015 -6.36111e-015 5.32809 -19.002 -93.2646 17.667 19.6225 -18.3163 -18.3264 6.37338 25.2702 32.1362 -2.85708 -10.7025 58.6295 -16.7168 51.156 -10.5799 20.942 131.171 26.2613 7.17187 -15.7787 25.0611 13.7467 -6.977 -15.1759 21.2463 31.8212 -0.192487 -7.01688 0.0279457 22.7122 -34.4164 -3.32885 
-3.55509 88.8597 -51.8648 -3.14575 -1.02411 -16.8816 -11.4746 -28.4423 15.6853 -0.607636 22.119 10.152 21.7646 16.2031 -4.57556 -42.3043 -39.4274 3.91997 2.99307 7.88928 -15.9246 8.76989 14.6485 -32.6522 4.88449 -17.3139 30.0323 1.59028e-015 1.59028e-015 -3.18055e-015 14.6203 -21.6787 -95.7826 12.4764 20.6465 -6.61905 -24.9334 4.23587 28.9531 31.4413 -2.6836 -10.3596 60.9124 -21.0121 52.9228 -12.0747 17.771 135.274 35.8234 4.26875 -21.3709 24.7697 13.42 -6.30187 -13.2204 20.1785 28.1838 -3.00805 -8.2367 0.0189204 20.8072 -32.8244 -5.71173 
